<svg xmlns="http://www.w3.org/2000/svg" viewBox="0 0 684.06 437.33"><defs><style>.cls-1{fill:#055ba1;}.cls-2{fill:#fae8f3;}</style></defs><g id="Camada_2" data-name="Camada 2"><g id="Camada_1-2" data-name="Camada 1"><g id="Camada_2-2" data-name="Camada 2"><g id="Camada_1-2-2" data-name="Camada 1-2"><rect class="cls-1" width="684.06" height="437.33"/><path class="cls-2" d="M0,437.33H91.88V165.9c0-112.68,9.17-125.78,103.51-125.78h48.48c30.07,0,48.87-20.25,58.25-40.12h-164C117.26,19.81,99.28,45.35,89.26,82.05,86.18,52.16,75,23.14,61.83,0H0Z"/><path class="cls-2" d="M684.06,200.91V189.44l-68,26.25C417,293.16,324,365.36,297.1,437.33h83.3c2.89-90.54,51.77-129.85,238.32-208.54Z"/><path class="cls-2" d="M304.25,99c0,18.34,21,30.14,52.41,30.14,35.38,0,47.17-6.56,59-23.59C432.82,80.59,448.6,33.78,482.9,0H417.27a623.66,623.66,0,0,0-67.16,37.43C317.36,58.43,304.25,83.29,304.25,99Z"/><path class="cls-2" d="M684.06.56V0h-.43Z"/></g></g></g></g></svg>