<?xml version="1.0" encoding="utf-8"?>
<!-- Generator: Adobe Illustrator 25.4.1, SVG Export Plug-In . SVG Version: 6.00 Build 0)  -->
<svg version="1.1" id="Camada_1" xmlns="http://www.w3.org/2000/svg" xmlns:xlink="http://www.w3.org/1999/xlink" x="0px" y="0px"
	 viewBox="0 0 520.7 383.5" style="enable-background:new 0 0 520.7 383.5;" xml:space="preserve">
<style type="text/css">
	.st0{enable-background:new    ;}
	.st1{fill:#FAE8F3;}
</style>
<g id="Camada_2_1_">
	<g id="Camada_1-2">
		<g class="st0">
			<path class="st1" d="M32.6,132c0-78.7-1.6-80-17.3-80H8.6c-2.6,0-2.6-2.9,0-2.9c9,0,32,1,36.5,1c4.8,0,27.2-1,36.2-1
				c2.6,0,2.6,2.9,0,2.9h-6.7c-15.7,0-17.3,1.3-17.3,80v56c0,78.7,1.6,80,17.3,80h6.7c2.6,0,2.6,2.9,0,2.9c-9,0-31.4-1-36.2-1
				c-4.5,0-27.5,1-36.5,1c-2.6,0-2.6-2.9,0-2.9h6.7c15.7,0,17.3-1.3,17.3-80C32.6,188,32.6,132,32.6,132z"/>
			<path class="st1" d="M100.2,238.6c0-21.4,20.8-42.6,80-65.6l26.6-10.2c-1.3-40-11.5-52.2-34.2-52.2c-28.2,0-34.2,25.3-41.3,35.5
				c-2.9,4.2-5.8,5.8-14.4,5.8c-7.7,0-12.8-2.9-12.8-7.4c0-3.8,3.2-9.9,11.2-15c12.8-8.3,39.7-21.8,62.4-21.8
				c31.4,0,54.1,16.3,54.1,58.2c0,21.4-2.6,57.6-2.6,70.1c0,18.2,2.2,27.2,9,27.2c5.8,0,13.8-11.2,17.3-17.6c1.6-2.6,5.4,0,3.8,2.6
				c-5.1,7.4-25.3,25.9-37.8,25.9c-12.2,0-18.2-8.3-18.2-22.7c0-8.3,0.6-19.5,1.3-26.2c-8.6,14.7-42.2,49.3-64.6,49.3
				C114.2,274.4,100.2,258.1,100.2,238.6z M155.8,260.3c17.9,0,46.4-32,49.3-42.6c0.3-4.2,1.9-19.8,1.9-46.1V165l-26.2,11.2
				c-47,19.8-58.2,29.4-58.2,53.1C122.6,246.6,140.2,260.3,155.8,260.3z"/>
		</g>
		<g class="st0">
			<path class="st1" d="M341.4,107.7c7.7,0,14.4,1.6,14.4,5.8c0,5.1-4.8,16.6-16,16.6H328c-23,0-25.3,3.2-25.3,30.7V268h19.5
				c2.6,0,2.6,2.9,0,2.9s-23.4-0.6-28.5-0.6c-4.8,0-23.4,0.6-32.6,0.6c-2.6,0-2.6-2.9,0-2.9c15.7,0,17.9-1.9,17.9-35.2v-82.6
				c0-9.3-7.4-17.6-14.7-24.3c-1-1-0.6-1.6,0-1.9c5.8-2.2,16.6-8,22.1-13.4c0.6-0.6,1-0.6,1.9,0.3c5.4,5.1,12.5,17,13.8,29.4
				c3.8-14.1,12.5-21.4,21.1-27.2C328.6,109.6,335,107.7,341.4,107.7z"/>
		</g>
		<g class="st0">
			<path class="st1" d="M361.3,238.6c0-21.4,20.8-42.6,80-65.6l26.6-10.2c-1.3-40-11.5-52.2-34.2-52.2c-28.2,0-34.2,25.3-41.3,35.5
				c-2.9,4.2-5.8,5.8-14.4,5.8c-7.7,0-12.8-2.9-12.8-7.4c0-3.8,3.2-9.9,11.2-15c12.8-8.3,39.7-21.8,62.4-21.8
				c31.4,0,54.1,16.3,54.1,58.2c0,21.4-2.6,57.6-2.6,70.1c0,18.2,2.2,27.2,9,27.2c5.8,0,13.8-11.2,17.3-17.6c1.6-2.6,5.4,0,3.8,2.6
				c-5.1,7.4-25.3,25.9-37.8,25.9c-12.2,0-18.2-8.3-18.2-22.7c0-8.3,0.6-19.5,1.3-26.2c-8.6,14.7-42.2,49.3-64.6,49.3
				C375.4,274.4,361.3,258.1,361.3,238.6z M417,260.3c17.9,0,46.4-32,49.3-42.6c0.3-4.2,1.9-19.8,1.9-46.1V165L442,176.2
				c-47,19.8-58.2,29.4-58.2,53.1C383.7,246.6,401.3,260.3,417,260.3z"/>
		</g>
	</g>
</g>
<g id="NkRs1t.tif">
	
		<image style="overflow:visible;" width="822" height="210" id="Camada_1_00000088838128975953007530000007396403148241634465_" xlink:href="77E67DFD19B3DBD5.png"  transform="matrix(0.24 0 0 0.24 161.71 166.55)">
	</image>
</g>
</svg>
