<svg xmlns="http://www.w3.org/2000/svg" viewBox="0 0 651.74 765.34"><defs><style>.cls-1{fill:#1d1d1b;}</style></defs><g id="Camada_2" data-name="Camada 2"><g id="Camada_2-2" data-name="Camada 2"><path class="cls-1" d="M0,4.48Q1.65,102,6.67,199.4c.23,4.48,17.21,4.09,20,4.07a71.26,71.26,0,0,0,14.14-1.19c1.6-.35,5.52-.85,5.86-2.88l.94-5.66c.66-4-17.89-4.08-20-4.06a70.52,70.52,0,0,0-14.14,1.19c-1.59.34-5.52.84-5.86,2.87l-.94,5.66h40Q41.65,102,40,4.48c-.1-6.09-40.1-5.86-40,0Z"/><path class="cls-1" d="M607.59,164.82Q597.54,361.5,596.48,558.5q-.3,55.69.13,111.4c0,4.67,17.21,4.4,20,4.38,2.57,0,20,.28,20-4.38q-1.49-196.93,6-393.79,2.13-55.67,5-111.29c.23-4.54-17.42-4.4-20-4.38a65.76,65.76,0,0,0-14.14,1.29c-1.52.35-5.75,1-5.86,3.09Z"/><path class="cls-1" d="M39.82,198.34q115-3.14,229.91-6.22c76.71-2,153.43-3.76,230.16-4.52q65.26-.65,130.54-.21c8.18.06,10.12-14.23,10-20s-1.62-19.94-10-20c-77.07-.59-154.13.22-231.18,1.72-76.66,1.48-153.31,3.62-229.95,5.71L39.82,158.34c-8.21.22-10.14,14-10,20,.12,5.47,1.65,20.22,10,20Z"/><path class="cls-1" d="M609.41,708l2.32,48.88c.36,7.48,14.81,8.51,20,8.41,4.44-.08,20.36-.93,20-8.41L649.41,708c-.35-7.48-14.81-8.51-20-8.41-4.43.08-20.35.93-20,8.41Z"/><path class="cls-1" d="M301.72,445.72a2276.51,2276.51,0,0,0-2,240.14q1.53,34.08,4.07,68.1c.56,7.48,14.69,8.47,20,8.37,4.25-.08,20.55-1,20-8.37a2276.16,2276.16,0,0,1-5.2-240.1q1.08-34.1,3.17-68.14c.18-2.89-3.85-5-5.86-5.92a35.81,35.81,0,0,0-14.14-2.45c-5.1.09-19.53.77-20,8.37Z"/><path class="cls-1" d="M395.1,439.41q4,122.35,1.75,244.79-.63,34.83-1.77,69.65c-.29,8.6,13.78,11.24,20,11.09,6.54-.16,19.71-2.21,20-11.09q4-122.36,1.79-244.8-.63-34.83-1.77-69.64c-.28-8.64-13.36-11.26-20-11.09-6.06.15-20.28,2.26-20,11.09Z"/><path class="cls-1" d="M310.75,460l60.37,225.09,17,63.48c.82,3.06,6.82,5.42,9.19,6.16a35.58,35.58,0,0,0,15.42,1c6.84-1.16,16.23-4.2,14-12.66L366.35,518l-17-63.48c-.82-3.06-6.81-5.42-9.19-6.15a35.38,35.38,0,0,0-15.41-1c-6.84,1.16-16.24,4.2-14,12.66Z"/><path class="cls-1" d="M477.49,752.49l39.56-248.41,11.31-71c.46-2.87-18.21-3-20-3a95.46,95.46,0,0,0-14.14.87c-1.25.19-5.6.46-5.86,2.08L448.79,681.51l-11.3,71c-.46,2.87,18.21,3,20,3a96.92,96.92,0,0,0,14.14-.87c1.24-.19,5.6-.47,5.86-2.08Z"/><path class="cls-1" d="M586.79,754.22l-34.07-241L543,444.13c-1.14-8.08-13.53-9.78-20-9.64-4.49.1-21.13,1.67-20,9.64l34.07,241,9.77,69.13c1.14,8.08,13.53,9.78,20,9.64,4.49-.1,21.13-1.67,20-9.64Z"/><path class="cls-1" d="M158.89,445.56,153.7,686.22l-1.46,67.62c-.12,5.35,16.89,5.31,20,5.27a56,56,0,0,0,14.14-1.54c1.72-.48,5.81-1.4,5.86-3.73l5.19-240.66,1.46-67.62c.11-5.35-16.89-5.3-20-5.27a55.5,55.5,0,0,0-14.14,1.55c-1.72.47-5.81,1.39-5.86,3.72Z"/><path class="cls-1" d="M138.45,544.83a204.22,204.22,0,0,0-9.93-65.12c-2.88-9-6.06-18.42-11.5-26.2C109.78,443.16,99.42,437,86.91,435c-24.14-3.81-48.59,7.42-58.76,30-4.43,9.83-6.64,20.66-9,31.14Q15.43,513,12.67,530.08c-7,43.71-9.85,88.92-6,133.09C10.08,703,23,761,72.6,762.64c15.3.5,28.92-5.38,38.36-17.34,7-8.82,12.27-19.31,16.81-29.54A192.88,192.88,0,0,0,144,647.05c.4-8.24-14.37-10.32-20-10.2-6.12.14-19.59,1.69-20,10.2A175.23,175.23,0,0,1,93.79,699,183.67,183.67,0,0,1,83,722.9c-3.7,6.87-7.53,14.48-13.48,19.55-.54.46-.65,0-.66.5,0,.64-1.06.2.57-.12a19.93,19.93,0,0,1,9.12.13c-.91-.23-2.52-1.24,0,.14-.64-.35-1.3-.66-1.94-1-2.13-1.11,1.36,1.07-.63-.35a38.29,38.29,0,0,1-3-2.4c-5.7-5-9.43-11.51-12.61-18.35-7.58-16.31-11.31-33.85-13.24-51.65-4.13-38.18-2.45-77.46,2.11-115.51q3.48-29.08,9.84-57.71c1.88-8.45,3.74-17,7.21-24.95a44.71,44.71,0,0,1,6.23-10.83,24.13,24.13,0,0,1,2.65-2.6c.56-.5,1.14-1,1.72-1.44,3.05-2.5-1.59.66,1.89-1.18.18-.1,2.39-1.23.67-.43-2.08,1,2-.48,2.15-.61-.69.61-4,.63-4.38.62l-2.46-.23c1.75.26,1.89.27.43,0-.72-.25-1.58-.46-2.32-.68,3,.89-.13-.36,1.12.62a37.36,37.36,0,0,1,3.49,3.27c5.67,6.9,8.71,16.45,11.51,24.77a188.27,188.27,0,0,1,9.36,62.32c-.1,8.27,14.16,10.33,20,10.2s19.89-1.72,20-10.2Z"/><path class="cls-1" d="M5.8,228.83,6.35,396.6c0,4.44,17.35,4.15,20,4.13a69,69,0,0,0,14.14-1.21c2.21-.48,4.6-.91,5.86-2.92l2.79-4.46c1.61-2.58-18.59-4.14-20-4.13A69.1,69.1,0,0,0,15,389.22c-2.21.48-4.6.91-5.86,2.92L6.35,396.6h40L45.8,228.83c0-6-40-6.11-40,0Z"/><path class="cls-1" d="M86.67,132.6A695.55,695.55,0,0,0,120.09,21.19c.29-1.34-13.84-1.55-15-1.55-1.69,0-14.52-.72-15,1.55A695.55,695.55,0,0,1,56.67,132.6c-.37.93,13.9,1.56,15,1.56a96.16,96.16,0,0,0,10.6-.46c.92-.1,4-.09,4.4-1.1Z"/><path class="cls-1" d="M157.29,137.1l-33.46-113c-.66-2.2-5.19-3.82-6.9-4.32a29.07,29.07,0,0,0-11.56-.72C100.6,19.72,93.1,21.9,94.9,28l33.46,113c.65,2.2,5.18,3.82,6.89,4.32a29.1,29.1,0,0,0,11.56.73c4.77-.65,12.27-2.83,10.48-8.89Z"/><path class="cls-1" d="M183.2,141.84l-2.69-119c-.17-7.23-30.16-7-30,0l2.69,119c.16,7.23,30.15,7,30,0Z"/><path class="cls-1" d="M240.7,138.43c-11-11.23-2.51-30.22-7.46-43.94-7.81-21.62-39.44-18.09-57-14.32-3,.65-11.54,5.06-5.38,8.52l5.44,3.06c6.07,3.41,13.81,3.92,20.52,2.23,3-.76,11.53-5.06,5.38-8.52l-5.43-3.06-5.39,8.53c.51-.11,5.43-1,3.51-.71.53-.08,6.29-.81,3.25-.42,1.82,0,1.9,0,.24,0-1.09-.25-1.16-.26-.21,0,0,.15.3,0,1.3.77,4.64,3.77,5.57,9.57,5.8,15.22.5,11.94-2.85,26.49,6.46,36,4.54,4.65,12.32,5.07,18.45,4.35,1.93-.22,14.76-3.28,10.48-7.66Z"/><path class="cls-1" d="M192.36,33.54c2.66-2.4,5.34-3.63,8.43-5.28l1.15-.28a25.55,25.55,0,0,1-8.28-.17c.64-.42,3.92,1.36,4.35,1.59,6.5,3.48,11.08,10.17,12.93,17.18a27.42,27.42,0,0,1-3,21.53c-3.34,5.26-9.83,10.89-15.42,11.46-2.23.22-10.84,2-5.38,4.71,5.67,2.82,14.51,1.85,20.52,1.24,11.94-1.21,23.54-6.21,30-16.78,5.93-9.78,5.36-21.25-.49-30.93-6.92-11.44-19.64-15.42-32.37-16.26-14-.93-30.38.26-41.32,10.16-3.22,2.92,9.58,4.18,10.48,4.24a57.29,57.29,0,0,0,11.56-.34c2.15-.31,5.22-.55,6.89-2.07Z"/><path class="cls-1" d="M299.48,79.27l4.42,59.53c.26,3.45,30.16,2.17,30,0l-4.42-59.53c-.26-3.45-30.16-2.16-30,0Z"/><path class="cls-1" d="M332.26,60.89c-.27-9.48-.7-19.7-5.19-28.29a34.13,34.13,0,0,0-21.3-17.14c-21.84-5.91-41.22,6-51.92,24.59-17.35,30.11-25.2,84.46,16.8,98.07,19.34,6.26,51.31-1.7,51.27-26.63,0-11.63-30-11.69-30,0a12.89,12.89,0,0,1-2.52,8.17,17.49,17.49,0,0,1-2.88,2.78c-.34.25-3.5,1.64-2,1.06,1.35-.21,1.19-.19-.47.08a5.9,5.9,0,0,1,2.33,0c-1.68-.29-1.88-.31-.59-.07-1.48-.56-1.79-.65-.94-.27A26.66,26.66,0,0,1,278,118c-11.11-12-9.44-31.91-6-46.56,3.4-14.45,10.11-31.83,23-40.26,2.44-1.59,1-.16.06-.28a26.42,26.42,0,0,1-3.43-.67c1.37-.93,5.57,5.18,6.18,6.28,4.13,7.47,4.22,16.1,4.46,24.42.2,6.63,9.94,8.48,15,8.48,4.66,0,15.2-1.86,15-8.48Z"/><path class="cls-1" d="M363.85,138.52,402.08,24.08c1.22-3.63-27.33-8-30,0L333.85,138.52c-1.21,3.63,27.33,8,30,0Z"/><path class="cls-1" d="M429.33,138.24A597.21,597.21,0,0,1,398.71,26.61h-30l1,3.82c2.07,7.59,31.1,4,30,0l-1-3.82c-1.91-7-30.86-5-30,0a597.21,597.21,0,0,0,30.62,111.63c3,7.81,31.18,3.09,30,0Z"/><path class="cls-1" d="M463.51,24.34l1.35,113.16c0,2.68,9.8,3,11,3.09,5.52.33,11.65.34,16.93-1.47l2.47-.85c6-2.07-3.88-4.18-5.38-4.37-6.5-.84-14.22-1-20.53,1.14l-2.46.85,27.95,1.61L493.51,24.34c-.06-4.74-30.06-4.66-30,0Z"/><path class="cls-1" d="M531.68,24.38l4.65,109.82c.19,4.45,30.17,3.84,30,0L561.68,24.38c-.19-4.46-30.16-3.84-30,0Z"/><path class="cls-1" d="M471.86,27.41l30.35,108.41c2.58,9.21,31.76,6.29,30,0L501.86,27.41c-2.58-9.2-31.76-6.28-30,0Z"/><path class="cls-1" d="M532.86,22.71a415,415,0,0,0-28.42,99.35c-.36,2.3,13.62,2.34,15,2.34,1.93,0,14.55.59,15-2.34a415,415,0,0,1,28.42-99.35c.72-1.69-13.9-2.34-15-2.34a66,66,0,0,0-10.61.68c-1.22.21-3.83.34-4.39,1.66Z"/><path class="cls-1" d="M564.39,21.31l6.25,119c.19,3.68,30.14,2.83,30,0L594.39,21.31c-.19-3.68-30.15-2.83-30,0Z"/><path class="cls-1" d="M87.13,116.93l39.68,1.56c6.81.27,7.09-19.72,0-20L87.13,96.93c-6.81-.26-7.09,19.73,0,20Z"/><path class="cls-1" d="M364.87,114l36.64,4.5c6.48.8,7.24-19.11,0-20L364.87,94c-6.48-.8-7.24,19.11,0,20Z"/><path class="cls-1" d="M427.47,97.26l29,1.4c6.78.33,7.11-19.65,0-20l-29-1.4c-6.78-.33-7.12,19.65,0,20Z"/><path class="cls-1" d="M589.23,88.3l51.89,3c6.75.39,7.14-19.59,0-20l-51.89-3c-6.74-.38-7.13,19.59,0,20Z"/><path class="cls-1" d="M589.27,38.75l51.88,1.84c6.82.25,7.08-19.75,0-20l-51.88-1.84c-6.83-.24-7.09,19.75,0,20Z"/><path class="cls-1" d="M592.34,137.78l50.36,6.12c6.49.78,7.24-19.13,0-20l-50.36-6.12c-6.48-.79-7.23,19.12,0,20Z"/><path class="cls-1" d="M35.23,331.4A367.73,367.73,0,0,0,110,329.33c8.22-1.07,10.15-13.37,10-20-.11-4.76-1.83-21.06-10-20a367.73,367.73,0,0,1-74.75,2.07c-3.19-.24-5.86,3.54-7.07,5.86a31.37,31.37,0,0,0-2.93,14.14c.14,6.19,1.58,19.37,10,20Z"/><path class="cls-1" d="M36.76,262.43a458.74,458.74,0,0,1,77.83-1.14c3.2.22,5.86-3.53,7.07-5.86a31.27,31.27,0,0,0,2.93-14.14c-.14-6.17-1.57-19.41-10-20a458.74,458.74,0,0,0-77.83,1.14c-8.23.83-10.15,13.57-10,20,.11,5,1.76,20.83,10,20Z"/><path class="cls-1" d="M41.36,400.82l73.25.6c8.19.07,10.13-14.23,10-20s-1.62-19.93-10-20l-73.25-.6c-8.19-.07-10.13,14.23-10,20s1.61,19.93,10,20Z"/><path class="cls-1" d="M198.54,620.39,270.33,617c12.33-.59,15.21-20.83,15-30-.16-7.06-.86-14.94-4.39-21.21-2.17-3.85-5.47-9-10.61-8.79l-71.79,3.42c-12.33.59-15.2,20.84-15,30,.16,7.07.87,15,4.4,21.22,2.17,3.85,5.46,9,10.6,8.78Z"/><path class="cls-1" d="M187.88,498.49a260.47,260.47,0,0,1,82.4-3.06c4.69.57,8.91-5.52,10.61-8.79,3.15-6.07,4.54-14.47,4.39-21.21-.22-9.8-2.34-28.45-15-30a260.47,260.47,0,0,0-82.4,3.06c-12.28,2.44-15.24,19.44-15,30,.15,7.07.86,14.95,4.39,21.22,1.93,3.42,5.76,9.75,10.61,8.78Z"/><path class="cls-1" d="M194,756.22l76.32-2.71c12.32-.44,15.2-21,15-30-.16-7.07-.87-15-4.39-21.22-2.19-3.89-5.45-9-10.61-8.78L194,696.22c-12.33.44-15.21,20.95-15,30,.15,7.07.86,14.95,4.39,21.22,2.19,3.89,5.45,9,10.61,8.78Z"/><path class="cls-1" d="M485.49,684.79l51.88-.76c8.21-.12,10.14-14.1,10-20-.12-5.56-1.64-20.13-10-20l-51.88.76c-8.2.12-10.13,14.09-10,20,.13,5.56,1.65,20.13,10,20Z"/><path class="cls-1" d="M136.34,363.19c8.88,23.07,28.11,44.25,55,42.2,29.42-2.23,45.14-30.17,43.84-57.61-.71-14.94-5.66-29.43-17.21-39.41-10-8.63-21.79-12.74-34.11-16.95-11.43-3.91-21.77-8.1-29.78-17-2.53-2.81.45,1.53-1.25-1.8-.43-.86-.91-1.73-1.27-2.63,1.6,4,.05-3.78.68,1.83a22.2,22.2,0,0,1-.4,6.41c.44-2.81.38-1.17,0-.29,0,.08,2.41-4,1.11-2.18a21.49,21.49,0,0,1,5.51-5.46c10.06-6.9,24.16-7.43,35.57-3.89a56.19,56.19,0,0,1,17.08,8.87,42,42,0,0,1,5.34,4.93c1,1.09,2,2.22,2.89,3.39.61.78,1.2,1.57,1.77,2.38l.38.63c1.51,2.53,3.63,5.86,7.07,5.86,3.21,0,5.85-3.3,7.07-5.86,3.7-7.78,4.64-20.55,0-28.28-12.44-20.72-34.83-35.68-59.77-33.78-12.71,1-25.18,6.33-33,16.67-10.68,14.11-12.77,33.53-8,50.27,3.67,12.78,12.66,23.47,24,30.17s24.57,9.26,36.59,14.51A58.2,58.2,0,0,1,209.11,344a38,38,0,0,1,4,4.07c0,.06,2.56,3.88,1.31,1.69.48.84.91,1.71,1.31,2.59-.69-1.85-.73-1.86-.15,0-.14-.71-.34-3.9-.17-.62l-.12-2.5q0,3.36.25-1.06l-.16,1.41q-.51,3.1.2-.58a11.12,11.12,0,0,1-.83,2.74c1.18-3.61-.47.65-.73,1.2-1.62,3.4,1.38-1.19-1.09,1.66a29.73,29.73,0,0,1-5,4.91,35.32,35.32,0,0,1-32.82,3.72,40.1,40.1,0,0,1-13.33-8.69,49.46,49.46,0,0,1-5.64-6.86c1.43,2.12-1.09-2-1.07-1.93-.31-.59-2.81-6.16-1.48-2.71-2.17-5.64-7.43-14.14-13.68-7.17-5.61,6.26-6.5,19.79-3.59,27.36Z"/><path class="cls-1" d="M255.31,371c13.23,21.23,36.52,37.64,62.56,35.89,13.51-.9,25.1-7.4,31.91-19.2,8.16-14.15,8.57-32.48,4.75-48a57.62,57.62,0,0,0-22.35-32.87c-10.14-7.46-22.34-11-34.49-13.63-5.25-1.13-10.51-2.12-15.5-4.18a28.73,28.73,0,0,1-7.94-4.45c.53.46-2.14-2.29-1.77-1.94-1-1.35-1.08-1.39-.26-.1a19.19,19.19,0,0,1-.93-1.73c0-2.31.85,3.64-.13-.23-1.11-4.39.38,4.12-.06-.41l.16,2.65q0-3.33-.24,1.29l.16-1.33c.33-2,.26-1.78-.23.81a11.34,11.34,0,0,1,.78-2.58c-1.25,3.8.28-.16.65-.85-1.35,2.52.74-1,1-1.29.57-.69,2.82-3,2.71-2.9,8.88-7.32,22-9.18,32.89-6,12.58,3.71,22.06,12.67,29.26,23.25,5.22,7.67,12.28-2,13.69-7.17,2.49-9.16,1.82-19.42-3.59-27.37-13.26-19.49-36.65-34.7-61-28.75-12.56,3.08-22.89,10.47-29.17,21.93-7.7,14.07-8.86,32.3-4.69,47.62,3.54,13,11.93,23.84,24.77,28.66,11.34,4.27,23.62,5,34.85,9.68a58.35,58.35,0,0,1,14.94,8.51,39.19,39.19,0,0,1,5.36,5.55c.64.8,1.31,1.64,1.87,2.5-1.44-2.21,1.11,2.44,1.33,2.93-1.68-3.65.44.56.26,1.21l-.39-2.05c.17.91.31,1.83.41,2.75.39-.34-.17-4.24-.13-1.18.07,4.74.74-4.48-.1.14,1.16-6.37-1.24,2.45.74-2.36a21.46,21.46,0,0,1-1.81,3.58c1.37-2.09,0-.13-.33.15a25.9,25.9,0,0,1-3,2.74c-10,6.93-24.59,5.6-35.44,1.51a62.1,62.1,0,0,1-16.92-9.54,49.26,49.26,0,0,1-5.31-5.1c-1-1.11-2-2.25-2.92-3.42-.34-.44-3.26-4.66-2.25-3-1.56-2.51-3.59-5.86-7.07-5.86-3.21,0-5.85,3.31-7.07,5.86-3.65,7.67-4.74,20.68,0,28.29Z"/><path class="cls-1" d="M297.54,89.34a132.2,132.2,0,0,1,32.89.56c4.77.65,15.6.82,18.45-4.19,3-5.2-7.83-7-10.48-7.36a199.53,199.53,0,0,0-48.84-.55c-3.06.33-13.32,2.19-10.47,7.36,2.73,5,14,4.67,18.45,4.18Z"/><path d="M454.81,319.35c-12.1-17.69-9-40.54,6.92-54.78,4-3.6,9.84-8.46,14.47-3.26,3.44,3.86,3.53,9.12,3,14-1.34,12.14-3.64,24.24-5.46,36.32-.29,1.91,9.6,2.61,10,0l3.65-24.12c1.05-6.95,3.54-15.28,1.19-22.19-3.65-10.71-17.08-11.86-26.27-8.23-11,4.36-19.61,15.38-23.21,26.44-4.09,12.58-1.29,25.93,6.07,36.68,1.48,2.17,10.79.82,9.64-.85Z"/><path d="M422.76,318.7a51,51,0,0,1-4.58-40.42,49,49,0,0,1,4.22-9.71c1.45-2.55,4.16-7.57,7.18-8.57,3.73-1.24,6.74,4.13,7.55,7,1.13,4,.44,8.35-.14,12.38-.29,2.06,9.61,2.7,10,0,1.33-9.31.55-19.24-9.79-22.56a19.43,19.43,0,0,0-22.36,7.51c-11.39,16.4-11.49,38.15-1.72,55.26,1.28,2.26,10.81,1.16,9.64-.9Z"/><path d="M453.11,286a27.4,27.4,0,0,0,5,29.06c2,2.23,11.15.7,9.64-1-6.59-7.54-8.83-17.61-5-27,1.15-2.78-8.61-3.53-9.64-1Z"/><path d="M420.68,282.45a28.44,28.44,0,0,0,2.81,29.88c1.71,2.32,7,2.58,9.13.59l.55-.51c3.23-3.07-6.34-4.69-8.64-2.51l-.54.52,9.14.59c-6-8.1-7.26-18.1-2.81-27.24,1.62-3.32-8.17-4.33-9.64-1.32Z"/><path d="M409.47,313.23c3.54,9.13,11.9,17.44,22.12,17.86s17.79-6.69,18.13-16.85c.11-3.4-9.89-3.53-10,0-.18,5.34-3.4,14.29-10.32,10.69-4.9-2.56-8.36-8.05-10.29-13-1.17-3-11-2.29-9.64,1.32Z"/><path d="M473.67,311.43c-.6,4.82-3.16,13.47-8.53,14.92-5.84,1.58-9.51-6.94-11.56-11.3-1.37-2.88-11.19-2-9.65,1.27,4.37,9.26,11.12,16.38,22.19,15.48,10.51-.86,16.35-10.71,17.55-20.37.38-3.08-9.57-3.49-10,0Z"/><path d="M458.93,256.46c1.78-21.41-18.22-35.6-37.6-37.55-20.58-2.08-41.78,7.21-51,26.41-9.08,18.91-5.38,42.55,2.86,61.08,8.11,18.24,22,32.2,36.85,45.12,15.53,13.55,32.72,26.77,41.31,46.08,2.6,5.85,18.95,5.78,19.64-1.45,2-21.13,20.46-35.93,36.7-47.14,17.5-12.08,36.62-23.28,48.69-41.35,11-16.42,11.51-37.94.51-54.54-11.16-16.86-31.07-26.4-50.83-28.32-23.16-2.24-48.69,5.34-63.79,23.8-6.18,7.56,12.91,10.83,17.27,5.51,10.25-12.52,26.43-20.34,42.78-18.61,16.94,1.78,32.64,12.31,39.39,28.12,17.15,40.19-30.14,64.3-56.24,83.39C469.09,359,453,374.89,451,396.15l19.64-1.45c-13.33-30-44.68-45.64-65.06-70a87.65,87.65,0,0,1-20.2-49.13c-1.24-17.05,3.91-36.65,20.92-44.18,16.72-7.41,34.07,7.84,32.64,25.06-.61,7.25,19.35,7.72,20,0Z"/><path d="M439.6,350.17l22.47-.17c6.05,0,6.11-5.79,0-5.74l-22.47.16c-6.05.05-6.1,5.79,0,5.75Z"/></g></g></svg>